<svg width="20" height="20" viewBox="0 0 20 20" fill="none" xmlns="http://www.w3.org/2000/svg">
<path d="M8.42499 9.29169H6.21666C5.69166 9.29169 5.26667 9.71665 5.26667 10.2416V14.5083H8.42499V9.29169V9.29169Z" stroke="#2A2A2A" stroke-width="1.25" stroke-miterlimit="10" stroke-linecap="round" stroke-linejoin="round"/>
<path d="M10.6344 5.49997H9.3677C8.8427 5.49997 8.41772 5.92498 8.41772 6.44998V14.5H11.5761V6.44998C11.5761 5.92498 11.1594 5.49997 10.6344 5.49997Z" stroke="#2A2A2A" stroke-width="1.25" stroke-miterlimit="10" stroke-linecap="round" stroke-linejoin="round"/>
<path d="M13.7901 10.7083H11.5818V14.5H14.7401V11.6583C14.7318 11.1333 14.3068 10.7083 13.7901 10.7083Z" stroke="#2A2A2A" stroke-width="1.25" stroke-miterlimit="10" stroke-linecap="round" stroke-linejoin="round"/>
<path d="M7.5 18.3333H12.5C16.6667 18.3333 18.3333 16.6667 18.3333 12.5V7.49999C18.3333 3.33332 16.6667 1.66666 12.5 1.66666H7.5C3.33333 1.66666 1.66666 3.33332 1.66666 7.49999V12.5C1.66666 16.6667 3.33333 18.3333 7.5 18.3333Z" stroke="#2A2A2A" stroke-width="1.25" stroke-linecap="round" stroke-linejoin="round"/>
</svg>
