<svg width="284" height="84" viewBox="0 0 284 84" fill="none" xmlns="http://www.w3.org/2000/svg">
<g clip-path="url(#clip0_21_6)">
<path d="M5.20271 63.6079V82.7626C5.20271 83.079 4.94381 83.338 4.63559 83.338H0.567121C0.258903 83.338 0 83.079 0 82.7626V63.6079C0 63.2915 0.258903 63.0326 0.567121 63.0326H4.63559C4.94381 63.0326 5.20271 63.2915 5.20271 63.6079ZM284 26.6054C284 31.5409 282.837 36.0491 280.474 40.1053C278.111 44.1573 274.906 47.3628 270.816 49.6559C266.695 51.9819 262.145 53.145 257.177 53.145C252.208 53.145 247.663 51.9819 243.574 49.6559C239.485 47.3669 236.28 44.1573 233.954 40.1053C231.591 36.0532 230.432 31.5409 230.432 26.6054C230.432 21.6698 231.595 17.1246 233.954 13.0725C236.28 9.0205 239.485 5.81093 243.574 3.48902C247.663 1.16301 252.208 0 257.177 0C262.145 0 266.69 1.16301 270.816 3.48902C274.906 5.81504 278.111 9.0205 280.474 13.0725C282.837 17.1246 284 21.6369 284 26.6054ZM274.24 26.6054C274.24 21.7437 272.617 17.6547 269.341 14.3753C266.062 11.0958 262.047 9.43968 257.218 9.43968C247.774 9.22598 239.986 17.0876 240.196 26.6012C240.196 31.43 241.815 35.482 245.095 38.7615C248.37 42.0368 252.389 43.697 257.218 43.697C262.047 43.697 266.062 42.0409 269.341 38.7615C272.617 35.482 274.24 31.43 274.24 26.6012V26.6054ZM221.551 41.6546C219.611 39.5382 216.652 39.0121 214.15 40.5614C211.33 42.6409 208.158 43.697 204.599 43.697C199.77 43.697 195.755 42.0779 192.546 38.7984C189.303 35.556 187.684 31.504 187.684 26.6054C187.684 21.7067 189.307 17.6177 192.546 14.3424C195.751 11.063 199.77 9.44379 204.599 9.44379C207.981 9.44379 211.154 10.4671 214.08 12.5465C215.243 13.2164 216.513 13.4629 217.885 13.2164C219.258 13.0027 220.458 12.3698 221.411 11.3506L223.536 8.94242C223.672 8.79037 223.676 8.55612 223.536 8.40407C221.387 5.95477 218.641 3.93286 215.313 2.39999C211.824 0.809585 208.298 0 204.669 0C199.663 0 195.118 1.16301 191.066 3.45204C186.977 5.77805 183.772 8.98352 181.446 13.0397C179.083 17.1287 177.924 21.6369 177.924 26.6095C177.924 31.582 179.087 36.0902 181.446 40.1423C183.772 44.1943 186.977 47.4039 191.066 49.6929C195.118 51.9819 199.663 53.145 204.669 53.145C208.367 53.145 211.963 52.3354 215.452 50.7121C218.822 49.1463 221.596 47.0916 223.721 44.5724C223.852 44.4162 223.844 44.1861 223.708 44.034L221.551 41.6546ZM166.89 0.702736H160.023C157.203 0.702736 155.901 1.54931 154.491 4.19176L140.395 30.8341C139.939 31.7135 139.655 32.8766 139.516 34.3231H139.409C139.302 32.9505 139.023 31.7875 138.599 30.8341L124.434 4.19176C123.024 1.54931 121.721 0.702736 118.935 0.702736H112.023C111.579 0.702736 111.217 1.06438 111.217 1.50821V51.6655C111.217 52.1093 111.579 52.471 112.023 52.471H120.172C120.616 52.471 120.978 52.1093 120.978 51.6655V18.9246C120.941 17.7616 120.694 16.389 120.238 14.8725H120.345L135.18 43.771C136.097 45.571 137.539 46.4505 139.479 46.4505C141.418 46.4505 142.828 45.571 143.745 43.771L158.58 14.8725H158.687C158.194 16.5287 157.947 17.8684 157.947 18.9246V51.6696C157.947 52.1134 158.309 52.4751 158.753 52.4751H166.902C167.346 52.4751 167.707 52.1134 167.707 51.6696V1.52054C167.707 1.06849 167.342 0.706846 166.894 0.706846L166.89 0.702736ZM56.2477 52.4751H49.923C49.6313 52.4751 49.434 52.1751 49.5532 51.908L71.7202 1.18767C71.8476 0.895886 72.1394 0.702736 72.4599 0.702736H80.038C80.3585 0.702736 80.6503 0.891777 80.7777 1.18767L102.945 51.908C103.06 52.1751 102.867 52.4751 102.575 52.4751H96.2173C93.9283 52.4751 91.9187 51.2052 91.0352 48.9861L87.9324 41.8683H64.5654L61.4997 48.9861C60.5463 51.2052 58.6107 52.4751 56.2477 52.4751ZM68.0873 33.7272H84.3695L77.8846 18.715C76.9311 16.4958 76.438 14.3794 76.438 12.2999H76.0846C76.0476 14.3794 75.5544 16.4917 74.6051 18.715L68.0832 33.7272H68.0873ZM8.95475 0.739722H0.805476C0.361642 0.739722 0 1.10136 0 1.5452V51.6655C0 52.1093 0.361642 52.471 0.805476 52.471H8.95475C9.39859 52.471 9.76023 52.1093 9.76023 51.6655V1.5452C9.76023 1.10136 9.39859 0.739722 8.95475 0.739722ZM25.9725 28.1916C25.2656 27.2053 23.893 26.1122 22.6602 25.9355V25.8656C23.8232 25.7588 25.1629 24.7725 25.9026 23.6465L42.2053 1.34794C42.4025 1.08082 42.2094 0.702736 41.8765 0.702736H33.5834C31.7875 0.66986 30.3779 1.47944 29.3177 3.09862L14.9383 23.3629L14.8849 23.441C13.8369 24.9574 13.9314 26.9382 14.9917 28.4464C14.9999 28.4547 15.004 28.4629 15.0081 28.4711L30.3738 49.8614C31.3971 51.4107 33.2629 52.4669 35.1327 52.4669H43.2409C43.5738 52.4669 43.7669 52.0888 43.5655 51.8176L25.9684 28.1834L25.9725 28.1916ZM167.124 62.7654H149.194C148.881 62.7654 148.623 63.0285 148.623 63.3449V66.5134C148.623 66.8257 148.886 67.0969 149.194 67.0969H155.523V82.7503C155.523 83.0708 155.786 83.3297 156.102 83.3297H160.216C160.528 83.3297 160.795 83.0667 160.795 82.7503V67.0969H167.116C167.428 67.0969 167.695 66.8257 167.695 66.5134V63.3449C167.695 63.0244 167.424 62.7654 167.116 62.7654H167.124ZM123.591 68.2188C123.591 67.2819 124.475 66.238 126.953 66.238C129.213 66.238 130.997 67.2243 131.942 67.7298C132.406 67.9764 132.71 67.8654 132.887 67.4791L134.034 64.9846C134.251 64.512 133.984 64.2572 133.738 64.1257C132.423 63.3819 130.072 62.3545 126.665 62.3545C121.331 62.3545 118.31 65.0586 118.31 68.7695C118.31 75.9613 129.049 74.0955 129.049 77.6873C129.049 78.9777 127.758 79.5572 125.609 79.5572C123.073 79.5572 121.623 78.7722 119.835 77.8804C119.441 77.6955 119.161 77.8393 119.001 78.1928L117.805 80.8147C117.645 81.1681 117.731 81.4722 118.093 81.69C120.008 82.7503 122.502 83.6708 125.654 83.6708C130.376 83.6708 134.638 81.6407 134.638 77.0709C134.638 69.764 123.587 71.3462 123.587 68.2188H123.591ZM103.787 79.1503H92.7119V74.8106H102.102C102.464 74.8106 102.686 74.601 102.686 74.2394V71.5065C102.686 71.1449 102.468 70.9271 102.102 70.9271H92.7119V66.949H103.45C103.812 66.949 104.03 66.7394 104.03 66.3778V63.3531C104.03 62.9915 103.812 62.7737 103.45 62.7737H88.0188C87.6982 62.7737 87.4393 63.0367 87.4393 63.3531V82.7585C87.4393 83.0791 87.7023 83.338 88.0188 83.338H103.791C104.153 83.338 104.371 83.1201 104.371 82.7585V79.7339C104.371 79.3722 104.153 79.1626 103.791 79.1626L103.787 79.1503ZM73.5161 62.7654H69.4435C69.0901 62.7654 68.8271 62.9422 68.6914 63.2709L63.3983 76.1832L58.0025 63.2709C57.8668 62.9257 57.6244 62.7654 57.271 62.7654H52.771C52.2984 62.7654 52.0724 63.0613 52.2819 63.5339L61.2326 83.038C61.3764 83.3585 61.6189 83.527 61.9805 83.527H64.4093C64.7627 83.527 65.0093 83.3585 65.1572 83.038L74.0174 63.5339C74.227 63.0613 73.9846 62.7654 73.512 62.7654H73.5161ZM38.9916 62.7654H35.03C34.619 62.7654 34.3724 63.0079 34.3724 63.4148V74.2969L21.6533 62.86C21.3903 62.6257 21.1478 62.5723 20.8355 62.5723H19.767C19.3643 62.5723 19.1177 62.823 19.1177 63.2298V82.6845C19.1177 83.0873 19.3602 83.3338 19.767 83.3338H23.7369C24.1396 83.3338 24.3862 83.0914 24.3862 82.6845V71.827L37.1135 83.2393C37.3683 83.4736 37.619 83.527 37.9231 83.527H38.9916C39.4025 83.527 39.6491 83.2763 39.6491 82.8695V63.4148C39.6491 63.0079 39.4025 62.7654 38.9916 62.7654Z" fill="#ECECEC"/>
</g>
<defs>
<clipPath id="clip0_21_6">
<rect width="284" height="83.6708" fill="white"/>
</clipPath>
</defs>
</svg>
