<svg width="20" height="20" viewBox="0 0 20 20" fill="none" xmlns="http://www.w3.org/2000/svg">
<path d="M11.6667 4.16667C11.6667 3.25 10.9167 2.5 10 2.5C9.08335 2.5 8.33335 3.25 8.33335 4.16667C8.33335 5.08333 9.08335 5.83333 10 5.83333C10.9167 5.83333 11.6667 5.08333 11.6667 4.16667Z" fill="#AAA4A4"/>
<path d="M11.6667 15.8334C11.6667 14.9167 10.9167 14.1667 10 14.1667C9.08335 14.1667 8.33335 14.9167 8.33335 15.8334C8.33335 16.75 9.08335 17.5 10 17.5C10.9167 17.5 11.6667 16.75 11.6667 15.8334Z" fill="#AAA4A4"/>
<path d="M11.6667 9.99998C11.6667 9.08331 10.9167 8.33331 10 8.33331C9.08335 8.33331 8.33335 9.08331 8.33335 9.99998C8.33335 10.9166 9.08335 11.6666 10 11.6666C10.9167 11.6666 11.6667 10.9166 11.6667 9.99998Z" fill="#AAA4A4"/>
</svg>
